<?xml version="1.0" encoding="utf-8"?>
<svg width="550px" height="550px" viewBox="0 0 150 150" version="1.1" xmlns:xlink="http://www.w3.org/1999/xlink" xmlns="http://www.w3.org/2000/svg">
  <desc>Created with Lunacy</desc>
  <defs>
    <linearGradient x1="0.49999842" y1="-0.0100645274" x2="0.499998182" y2="1.00862634" id="gradient_1">
      <stop offset="0" stop-color="#FF9600" />
      <stop offset="0.0034" stop-color="#FF9500" />
      <stop offset="0.1724" stop-color="#F86800" />
      <stop offset="0.3424" stop-color="#F34200" />
      <stop offset="0.511" stop-color="#EE2500" />
      <stop offset="0.6776999" stop-color="#EB1100" />
      <stop offset="0.841699958" stop-color="#EA0400" />
      <stop offset="1" stop-color="#E90000" />
    </linearGradient>
    <path d="M0 0L150 0L150 149.976L0 149.976L0 0Z" id="path_1" />
    <clipPath id="mask_1">
      <use xlink:href="#path_1" />
    </clipPath>
  </defs>
  <g id="Scootin_Logo_Red_Final_No-Shadow_curved">
    <path d="M0 0L150 0L150 149.976L0 149.976L0 0Z" id="Background" fill="none" stroke="none" />
    <g clip-path="url(#mask_1)">
      <g id="Group" transform="translate(29.99609 8.431152)">
        <path d="M12.5991 7.05927C12.6267 10.5354 12.7021 20.1659 12.7277 23.4743C12.7299 23.7517 12.7273 23.9748 12.7253 24.1564C12.7184 24.7614 12.7167 24.9044 12.9111 25.052C13.1093 25.2033 13.3192 25.0767 13.9596 24.6906C14.1345 24.5851 14.3416 24.4603 14.5893 24.3164C19.4479 21.4952 32.6125 13.8591 36.7712 11.4442C36.9856 11.3197 37.1587 11.2263 37.297 11.1517C37.6862 10.9417 37.7999 10.8803 37.7822 10.6941C37.7581 10.4414 37.5501 10.3957 36.6706 9.88396C33.9108 8.27715 25.392 3.27177 21.9286 1.36783C18.4655 -0.536374 16.9835 -0.179981 15.3143 0.793684C13.645 1.76788 12.5716 3.58292 12.5991 7.05927ZM0.188314 52.9908C0.980212 54.6119 2.37377 54.6754 3.51386 54.386C4.65421 54.096 50.1858 42.5128 53.7111 41.6542C57.23 40.7975 59.4655 43.2632 60.0968 44.2395C60.7283 45.2158 61.243 46.7726 60.6098 48.6091C60.2029 49.7891 54.0476 68.7208 54.0476 68.7208C54.0476 68.7208 86.5196 48.9311 87.1882 48.3789C87.2677 48.3132 87.364 48.2397 87.4724 48.1569C88.447 47.4128 90.3995 45.9219 89.9428 42.6639C89.6446 40.2019 86.3942 38.6245 85.624 38.1731C84.8541 37.7215 57.0205 21.4806 56.7842 21.3157C56.5479 21.1509 55.8068 20.6829 55.366 20.885C54.925 21.0871 54.8871 21.488 54.6128 22.2532C53.4589 25.4697 50.7353 33.5609 50.7353 33.5609C50.7353 33.5609 50.3548 34.7034 50.1781 34.868C50.0008 35.0325 48.6882 35.3146 48.6882 35.3146C48.6882 35.3146 36.2475 37.9906 34.7542 38.2893C32.9127 38.6578 33.4641 37.1677 33.4641 37.1677C33.4641 37.1677 37.3342 23.4663 37.4048 23.1914C37.4757 22.9165 37.4419 22.1307 37.2781 21.856C36.2729 20.4397 34.5857 21.9121 34.5857 21.9121C34.5857 21.9121 4.19014 47.1629 2.72858 48.35C1.26728 49.5367 -0.603584 51.3697 0.188314 52.9908ZM5.13987 62.0131C5.28724 61.9694 39.4539 54.6222 40.3622 54.4415C41.3293 54.2492 42.1042 54.7326 42.4373 55.6192C42.7699 56.5063 42.5879 57.4964 42.3249 58.2552C42.0624 59.0138 26.6245 104.987 26.6245 104.987L26.6248 87.9486C26.6248 87.8891 26.6262 87.8328 26.6274 87.7789C26.6357 87.4377 26.6415 87.1975 26.2845 86.9249C25.9391 86.6608 25.4679 86.9543 25.0377 87.2223C24.9853 87.2549 24.9334 87.2872 24.8825 87.3181C24.7164 87.4186 20.855 89.6025 19.8126 89.8837C18.79 90.1594 16.7664 90.2743 14.9308 89.2247C13.1239 88.1923 12.7435 86.3796 12.7435 85.5792L12.7435 67.9038C12.7435 67.9038 12.7884 65.6384 12.441 64.928C12.2071 64.4496 11.5338 64.1422 11.0395 64.0239C10.7223 63.948 5.46663 62.9725 5.16077 62.9002C5.1225 62.8912 5.08267 62.8827 5.04232 62.874C4.76045 62.8136 4.45269 62.7477 4.46704 62.4621C4.48318 62.1353 4.99276 62.0568 5.13987 62.0131Z" id="Shape" fill="url(#gradient_1)" fill-rule="evenodd" stroke="none" />
      </g>
      <g id="Group" transform="translate(35.46484 115.6318)">
        <g id="Group">
          <path d="M3.91583 11.0493C3.91583 12.0235 4.61777 12.51 6.02191 12.51C7.42606 12.51 8.128 12.0729 8.128 11.1974C8.128 10.7318 7.88775 10.351 7.40833 10.0544C6.92838 9.75836 6.34629 9.51123 5.66208 9.31385C4.9776 9.11647 4.29313 8.88708 3.60892 8.62593C2.92444 8.36506 2.3421 7.95575 1.86267 7.39801C1.38272 6.84053 1.143 6.146 1.143 5.31282C1.143 1.77138 3.42186 0 7.97983 0C9.64458 0 10.904 0.314322 11.7581 0.942181C12.6116 1.57003 13.0387 2.44184 13.0387 3.55653C13.0387 3.96584 12.9857 4.35742 12.8799 4.73101C12.7741 5.10513 12.6645 5.36972 12.5518 5.52476L12.3825 5.7785L8.63599 5.7785C8.94608 5.45439 9.10165 5.04534 9.10165 4.5511C9.10165 3.63379 8.50158 3.175 7.30249 3.175C5.79225 3.175 5.03766 3.65496 5.03766 4.6146C5.03766 5.09429 5.27737 5.47556 5.75732 5.75707C6.23701 6.03964 6.8191 6.26189 7.50357 6.42408C8.18778 6.58628 8.87596 6.78735 9.56732 7.02707C10.2584 7.26731 10.8442 7.66577 11.3242 8.22298C11.8038 8.78045 12.0438 9.50356 12.0438 10.3928C12.0438 12.1848 11.5075 13.5146 10.4352 14.3827C9.36253 15.2503 7.7118 15.6845 5.48216 15.6845C3.25226 15.6845 1.72826 15.2897 0.910166 14.4991C0.303478 13.9065 0 13.0884 0 12.0441C0 11.6488 0.0423342 11.2183 0.126999 10.7527L0.1905 10.4143L4.00049 10.4143L3.95816 10.668C3.92959 10.8095 3.91583 10.9365 3.91583 11.0493L3.91583 11.0493Z" transform="translate(0 0.8458893)" id="Shape" fill="#E90000" stroke="none" />
          <path d="M4.40266 10.795C1.46738 10.795 0 9.77899 0 7.74673C0 7.46522 0.0280465 7.16174 0.0846685 6.83683L0.529166 4.21216C0.754854 2.85777 1.37239 1.8206 2.38125 1.10067C3.3901 0.380734 4.67068 0.0145501 6.22299 0C9.22865 0 10.7315 1.04431 10.7315 3.13266C10.7315 3.5843 10.6786 3.98991 10.5727 4.34974C10.4669 4.70984 10.3574 4.95326 10.2446 5.08L10.0753 5.29193L6.47699 5.29193C6.82967 4.98184 7.00615 4.61433 7.00615 4.19126C7.00615 3.42953 6.62515 3.04826 5.86315 3.04826C5.41125 3.04826 5.02337 3.18267 4.69899 3.45069C4.37408 3.71898 4.16268 4.12775 4.06399 4.67809L3.78883 6.22326C3.76052 6.36481 3.74649 6.49868 3.74649 6.62569C3.74649 7.37339 4.21216 7.74699 5.14349 7.74699C5.45358 7.74699 5.73245 7.64883 5.97957 7.45092C6.22643 7.25355 6.37115 7.035 6.41349 6.79476L9.92715 6.83709C9.46149 9.47552 7.61999 10.795 4.40266 10.795L4.40266 10.795Z" transform="translate(13.52461 5.736187)" id="Shape" fill="#E90000" stroke="none" />
          <path d="M9.88481 0.994835C9.10853 0.331787 7.95865 0 6.43465 0C3.00566 0 1.04404 1.39673 0.550329 4.19099L0.105832 6.66723C0.0351884 7.06251 0 7.42261 0 7.74672C0 8.67859 0.282044 9.37656 0.846665 9.84223C1.60866 10.4632 2.80775 10.7738 4.44499 10.7738C6.0817 10.7738 7.39033 10.4635 8.3714 9.84223C9.35195 9.22151 9.97636 8.16318 10.2446 6.66723L10.6891 4.19099C10.7595 3.82402 10.795 3.48562 10.795 3.175C10.795 2.24393 10.4912 1.51739 9.88481 0.994835ZM7.04762 4.07447C7.04762 4.29355 7.03333 4.47346 7.00528 4.61396L6.73012 6.20171C6.64545 6.65388 6.44754 7.0378 6.13745 7.35556C5.82683 7.67279 5.44212 7.83154 4.98387 7.83154C4.52508 7.83154 4.20388 7.70455 4.02079 7.45081C3.83717 7.19655 3.74562 6.96027 3.74562 6.74173C3.74562 6.52319 3.75938 6.34327 3.78796 6.20172L4.06312 4.61422C4.14779 4.10622 4.34517 3.70088 4.65579 3.39714C4.96588 3.09366 5.35085 2.94179 5.80937 2.94179C6.26789 2.94179 6.58883 3.07593 6.77245 3.34422C6.95554 3.61251 7.04762 3.85593 7.04762 4.07447Z" transform="translate(25.18763 5.757014)" id="Shape" fill="#E90000" fill-rule="evenodd" stroke="none" />
          <path d="M9.88482 0.994835C9.10853 0.331787 7.95891 0 6.43465 0C3.00565 0 1.0443 1.39673 0.550329 4.19099L0.105832 6.66723C0.0351884 7.06251 0 7.42261 0 7.74673C0 8.67859 0.282048 9.37656 0.846669 9.84223C1.60867 10.4632 2.80776 10.7738 4.445 10.7738C6.08197 10.7738 7.3906 10.4635 8.37141 9.84223C9.35195 9.22151 9.97637 8.16318 10.2447 6.66723L10.6892 4.19099C10.7595 3.82402 10.795 3.48562 10.795 3.175C10.795 2.24393 10.4915 1.51739 9.88482 0.994835ZM7.04762 4.07447C7.04762 4.29355 7.03333 4.47346 7.00529 4.61395L6.73012 6.20171C6.64572 6.65388 6.44781 7.0378 6.13745 7.35556C5.82736 7.67279 5.44239 7.83154 4.98413 7.83154C4.52509 7.83154 4.20414 7.70455 4.02079 7.45081C3.83743 7.19655 3.74562 6.96027 3.74562 6.74173C3.74562 6.52319 3.75965 6.34327 3.78796 6.20172L4.06312 4.61422C4.14779 4.10622 4.34516 3.70088 4.65579 3.39714C4.96588 3.09366 5.35058 2.94179 5.80937 2.94179C6.26789 2.94179 6.5891 3.07593 6.77245 3.34422C6.95555 3.61251 7.04762 3.85593 7.04762 4.07447Z" transform="translate(37.123 5.757014)" id="Shape" fill="#E90000" fill-rule="evenodd" stroke="none" />
          <path d="M4.33889 14.0126C2.70166 14.0126 1.52373 13.6456 0.804068 12.9119C0.267756 12.3756 0 11.6562 0 10.7529C0 10.4563 0.0277841 10.1391 0.084402 9.80042L1.52373 1.60866L5.39723 0L4.7834 3.53457L10.6254 3.53457L10.0962 6.51933L4.25423 6.51933L3.8309 8.9109C3.77428 9.17919 3.74623 9.4189 3.74623 9.63083C3.74623 10.5196 4.16983 10.9641 5.01649 10.9641C5.46787 10.9641 5.84516 10.7738 6.14864 10.3931C6.45185 10.0118 6.66008 9.50383 6.77305 8.86857L10.2867 8.86857C9.69431 12.2978 7.71126 14.0126 4.33889 14.0126L4.33889 14.0126Z" transform="translate(49.35955 2.518844)" id="Shape" fill="#E90000" stroke="none" />
          <path d="M2.38154 0.624154C1.97938 1.04061 1.77829 1.70048 1.77829 2.60324C1.77829 3.61924 2.36381 4.12724 3.53539 4.12724C4.39581 4.12724 5.02737 3.92325 5.42954 3.5134C5.8317 3.10462 6.03279 2.45507 6.03279 1.56634C6.03279 0.52202 5.43985 0 4.25479 0C3.40812 0 2.7837 0.208232 2.38154 0.624154ZM5.24906 13.3134C4.99507 13.4544 4.70587 13.5248 4.38123 13.5248C3.9579 13.5248 3.7465 13.3348 3.74677 12.9533C3.74677 12.8829 3.75365 12.8054 3.76793 12.7207L4.953 6.053L1.35466 6.053L0.0846686 13.2076C0.0280425 13.546 0 13.9376 0 14.3821C0 14.8266 0.126736 15.2467 0.380734 15.6415C0.761735 16.2341 1.59411 16.5307 2.8784 16.5307C3.72533 16.5307 4.47993 16.2553 5.14323 15.705L5.24906 13.3134Z" transform="translate(60.87518 0)" id="Shape" fill="#E90000" fill-rule="evenodd" stroke="none" />
          <path d="M7.11173 3.97933C7.11173 3.37264 6.81884 3.0689 6.23358 3.0689C5.6478 3.0689 5.16466 3.28797 4.78366 3.72507L3.5986 10.4772L0 10.4772L1.79943 0.296065L5.14376 0.296065L4.91092 1.54516C5.7433 0.515141 6.79475 0 8.06476 0C9.33476 0 10.1603 0.310623 10.5413 0.931329C10.781 1.32661 10.9008 1.77826 10.9008 2.28626C10.9008 2.79426 10.8654 3.26707 10.7953 3.70416L10.2238 6.96383C10.2095 7.0485 10.2026 7.12602 10.2026 7.1964C10.2026 7.57766 10.4143 7.7679 10.8373 7.7679C11.162 7.7679 11.4512 7.69752 11.7052 7.55649L11.5996 9.94806C10.936 10.4984 10.1814 10.7738 9.33449 10.7738C7.41521 10.7738 6.45583 9.96923 6.45583 8.36056C6.45583 8.07851 6.48387 7.77503 6.5405 7.45066L7.0485 4.63523C7.09083 4.38124 7.11173 4.16269 7.11173 3.97933L7.11173 3.97933Z" transform="translate(67.11682 5.757014)" id="Shape" fill="#E90000" stroke="none" />
        </g>
      </g>
      <g id="Group" transform="translate(70.67969 136.4883)">
        <g id="Group">
          <path d="M2.1799 3.38506C2.1799 3.4401 2.17752 3.48614 2.17276 3.52291C2.16799 3.56021 2.16085 3.58985 2.15133 3.6126C2.1418 3.63535 2.1299 3.65176 2.11587 3.66234C2.10159 3.67266 2.08597 3.67796 2.06904 3.67796L0.221724 3.67796C0.159284 3.67796 0.106631 3.65943 0.0640302 3.62266C0.0214295 3.58536 0 3.52556 0 3.44196L0 0.236C0 0.152655 0.0214295 0.0925977 0.0640302 0.0552938C0.106631 0.0185228 0.159276 0 0.221724 0L2.05766 0C2.0746 0 2.08995 0.00476392 2.10317 0.0142918C2.1164 0.0238196 2.12777 0.0404852 2.1373 0.0640303C2.14683 0.0875754 2.15397 0.117741 2.15873 0.155045C2.1635 0.191816 2.16588 0.238648 2.16588 0.295541C2.16588 0.34846 2.1635 0.393694 2.15873 0.430481C2.15397 0.467785 2.14682 0.497418 2.1373 0.520172C2.12777 0.542925 2.1164 0.559333 2.10317 0.56991C2.08995 0.580229 2.07486 0.585526 2.05766 0.585526L0.744535 0.585526L0.744535 1.48379L1.85579 1.48379C1.87272 1.48379 1.88859 1.48909 1.90262 1.49941C1.9169 1.50998 1.92855 1.52613 1.93807 1.5481C1.9476 1.56978 1.95474 1.59916 1.9595 1.63593C1.96427 1.67323 1.96665 1.71821 1.96665 1.77113C1.96665 1.82616 1.96427 1.87167 1.9595 1.90765C1.95474 1.94363 1.94759 1.97247 1.93807 1.99418C1.92855 2.01614 1.91664 2.03175 1.90262 2.04127C1.88859 2.05078 1.87272 2.05556 1.85579 2.05556L0.744535 2.05556L0.744535 3.09299L2.06904 3.09299C2.08597 3.09299 2.10185 3.09829 2.11587 3.10861C2.13016 3.11919 2.1418 3.13587 2.15133 3.15835C2.16085 3.1811 2.16799 3.21074 2.17276 3.24804C2.17726 3.28399 2.1799 3.33003 2.1799 3.38506L2.1799 3.38506Z" transform="translate(0 0.3007867)" id="Shape" fill="#E90000" stroke="none" />
          <path d="M2.28865 2.76911C2.30717 2.75403 2.31696 2.73339 2.31696 2.70667L2.31669 2.70667L2.31669 1.00065C2.31669 0.82629 2.29553 0.675475 2.25425 0.548739C2.21244 0.421728 2.1463 0.31802 2.05528 0.237582C1.96452 0.156886 1.84811 0.0970871 1.70709 0.0582006C1.56606 0.0193141 1.39594 0 1.19697 0C1.08505 0 0.976836 0.00926946 0.87153 0.0272593C0.76649 0.0452492 0.669394 0.0685358 0.579962 0.0968448C0.491063 0.125412 0.41354 0.156111 0.346861 0.189184C0.280716 0.222515 0.234417 0.252682 0.207957 0.280199C0.181239 0.307975 0.163507 0.338658 0.153721 0.372797C0.14446 0.406936 0.139696 0.453234 0.139696 0.511968C0.139696 0.555618 0.142078 0.595312 0.147899 0.631292C0.153721 0.667272 0.161925 0.697696 0.172244 0.722307C0.182563 0.746918 0.195789 0.765974 0.21193 0.7792C0.22807 0.792426 0.246593 0.799047 0.267231 0.799047C0.297656 0.799047 0.336817 0.786079 0.385498 0.759353C0.433653 0.732626 0.493711 0.703526 0.565945 0.671244C0.637646 0.638963 0.720724 0.609863 0.814387 0.583136C0.908317 0.556668 1.01495 0.543442 1.13427 0.543442C1.22529 0.543442 1.30122 0.55297 1.36313 0.571751C1.42478 0.590532 1.47373 0.620165 1.51103 0.659859C1.54781 0.699537 1.57401 0.749292 1.59067 0.808817C1.60681 0.868874 1.61448 0.938185 1.61448 1.01783L1.61448 1.17129L1.36736 1.17129C1.14168 1.17129 0.943497 1.18823 0.773111 1.22236C0.602724 1.25648 0.460113 1.30887 0.345812 1.38031C0.230985 1.45122 0.144726 1.54144 0.086784 1.65019C0.0288419 1.75919 0 1.88751 0 2.03542C0 2.17194 0.0227537 2.29128 0.0682612 2.39367C0.113769 2.49605 0.177799 2.58179 0.26061 2.65084C0.34263 2.72015 0.440266 2.77228 0.552977 2.80747C0.66543 2.8424 0.788985 2.85985 0.923925 2.85985C1.08691 2.85985 1.23507 2.82864 1.36896 2.76619C1.5023 2.70376 1.6211 2.6167 1.72561 2.50479L1.72561 2.70667C1.72561 2.73313 1.73329 2.75377 1.74996 2.76911C1.7661 2.78447 1.79361 2.79531 1.83224 2.80193C1.87087 2.80827 1.93305 2.81171 2.01824 2.81171C2.09788 2.81171 2.15847 2.80827 2.19922 2.80193C2.23944 2.79531 2.2696 2.78445 2.28865 2.76911ZM1.34092 1.62129L1.61396 1.62129L1.61396 2.05335C1.52718 2.15178 1.44119 2.22692 1.35705 2.27798C1.27238 2.32905 1.18031 2.35471 1.0795 2.35471C0.959909 2.35471 0.867037 2.32428 0.799833 2.26369C0.732105 2.2031 0.698499 2.11976 0.698499 2.01366C0.698499 1.95123 0.710409 1.89566 0.734221 1.8475C0.758032 1.79881 0.795336 1.7578 0.846407 1.72367C0.897478 1.68955 0.964148 1.66389 1.04538 1.64695C1.12687 1.62975 1.22556 1.62129 1.34092 1.62129Z" transform="translate(2.563301 1.183925)" id="Shape" fill="#E90000" fill-rule="evenodd" stroke="none" />
          <path d="M1.93543 1.98043C1.93543 2.12437 1.90845 2.25136 1.8542 2.36118C1.80049 2.47097 1.72403 2.56305 1.6256 2.63687C1.52717 2.71069 1.4105 2.76625 1.27608 2.80303C1.14141 2.84033 0.995626 2.85859 0.838465 2.85859C0.743744 2.85859 0.653254 2.85171 0.567269 2.83716C0.481018 2.82315 0.403754 2.80516 0.335493 2.78345C0.267231 2.76149 0.210347 2.73927 0.164839 2.71652C0.119332 2.69376 0.0862591 2.67233 0.0653544 2.65274C0.0444497 2.63264 0.028309 2.60168 0.0169321 2.55882C0.00555521 2.5165 0 2.45352 0 2.36991C0 2.31488 0.00184904 2.27095 0.00555521 2.23788C0.00952783 2.20455 0.015083 2.17782 0.0224873 2.15823C0.0298996 2.13813 0.0394194 2.1249 0.0507962 2.11854C0.0621731 2.11192 0.0764568 2.10848 0.0933969 2.10848C0.114302 2.10848 0.144993 2.12038 0.186003 2.14393C0.226488 2.16774 0.277284 2.19366 0.337875 2.22225C0.398465 2.25083 0.469108 2.27728 0.549804 2.30189C0.630234 2.3265 0.721515 2.33894 0.823915 2.33894C0.888212 2.33894 0.945621 2.33232 0.995626 2.31909C1.0459 2.30587 1.08956 2.28681 1.12633 2.2622C1.16363 2.23759 1.19141 2.20637 1.2102 2.16854C1.22898 2.1307 1.2385 2.08705 1.2385 2.03783C1.2385 1.98093 1.22104 1.93226 1.18612 1.89152C1.15093 1.85077 1.10436 1.81505 1.04668 1.78489C0.989005 1.75472 0.92365 1.72615 0.850892 1.69969C0.777866 1.67296 0.702992 1.64386 0.625995 1.61158C0.54953 1.5793 0.474655 1.54225 0.40163 1.50072C0.328605 1.45918 0.263251 1.40784 0.205309 1.34725C0.147633 1.28666 0.10106 1.21364 0.0664041 1.12844C0.0312157 1.04323 0.0137508 0.94085 0.0137508 0.821526C0.0137508 0.700345 0.0375623 0.58895 0.0849269 0.487615C0.132283 0.386023 0.200553 0.299497 0.289452 0.227538C0.378352 0.155578 0.487098 0.0997516 0.614626 0.0597993C0.742686 0.0201054 0.886088 0 1.04536 0C1.125 0 1.20226 0.00555521 1.27714 0.0169402C1.35176 0.0283251 1.41948 0.0426007 1.48034 0.0595409C1.5412 0.0764811 1.59226 0.0952623 1.6338 0.114835C1.67534 0.13494 1.7055 0.152139 1.72323 0.165897C1.74122 0.180448 1.75419 0.194206 1.76186 0.208757C1.76927 0.222774 1.77508 0.239714 1.77879 0.259819C1.78276 0.279392 1.78567 0.304277 1.78884 0.333636C1.79149 0.362736 1.79307 0.399249 1.79307 0.442915C1.79307 0.493978 1.79148 0.535788 1.78884 0.568069C1.78567 0.600351 1.78117 0.626011 1.77429 0.644792C1.76795 0.663574 1.75868 0.676541 1.74731 0.683162C1.73593 0.689783 1.7227 0.693223 1.70762 0.693223C1.69069 0.693223 1.66396 0.683162 1.62798 0.66359C1.592 0.643484 1.54675 0.622313 1.49304 0.599559C1.43881 0.576806 1.37636 0.555635 1.30545 0.535529C1.23402 0.515957 1.15331 0.505896 1.0623 0.505896C0.998 0.505896 0.941915 0.512517 0.89455 0.525743C0.847185 0.538969 0.808299 0.558025 0.778133 0.582635C0.747967 0.607246 0.725213 0.636088 0.709872 0.66942C0.694522 0.702492 0.687118 0.737939 0.687118 0.775776C0.687118 0.83451 0.705108 0.883731 0.741095 0.923684C0.777083 0.963636 0.82444 0.998566 0.883173 1.02872C0.941907 1.05887 1.00885 1.08745 1.08373 1.11392C1.15834 1.14064 1.23401 1.16949 1.311 1.20044C1.38747 1.23193 1.4634 1.26845 1.53828 1.30998C1.6129 1.35152 1.67984 1.40285 1.73857 1.46344C1.7973 1.52403 1.84467 1.59653 1.88065 1.68094C1.91718 1.76506 1.93543 1.86507 1.93543 1.98043L1.93543 1.98043Z" transform="translate(5.440607 1.185527)" id="Shape" fill="#E90000" stroke="none" />
          <path d="M0.735799 0.667804C0.79454 0.612769 0.823907 0.513292 0.823907 0.369357C0.823907 0.231236 0.795332 0.134665 0.73898 0.0812288C0.682096 0.0269848 0.574141 0 0.414864 0C0.253997 0 0.14446 0.0277761 0.0865176 0.0836027C0.0288419 0.139688 0 0.239698 0 0.383633C0 0.521754 0.027776 0.617791 0.0838691 0.670711C0.139429 0.723631 0.248176 0.750358 0.409043 0.750358C0.568053 0.750358 0.677057 0.72284 0.735799 0.667804ZM0.750294 3.81243C0.761671 3.79841 0.767226 3.78147 0.767226 3.76269L0.767226 1.23302C0.767226 1.21398 0.761671 1.1973 0.750294 1.18328C0.738917 1.16873 0.719337 1.15655 0.691819 1.14597C0.664568 1.13566 0.628055 1.12745 0.582548 1.1219C0.53704 1.11634 0.479098 1.11343 0.409246 1.11343C0.339394 1.11343 0.281452 1.11607 0.235944 1.1219C0.190437 1.12773 0.154191 1.13566 0.126673 1.14597C0.0988891 1.15655 0.079575 1.16873 0.0681982 1.18328C0.0568213 1.1973 0.0512661 1.21424 0.0512661 1.23302L0.0512661 3.76269C0.0512661 3.78173 0.0568213 3.79841 0.0681982 3.81243C0.079575 3.82698 0.0991555 3.83862 0.126673 3.84815C0.153924 3.85768 0.190437 3.86456 0.235944 3.86932C0.281452 3.87408 0.339394 3.87646 0.409246 3.87646C0.479098 3.87646 0.53704 3.87434 0.582548 3.86932C0.628055 3.86482 0.664301 3.85768 0.691819 3.84815C0.719603 3.83862 0.738917 3.82698 0.750294 3.81243Z" transform="translate(7.859718 0.1193537)" id="Shape" fill="#E90000" fill-rule="evenodd" stroke="none" />
          <path d="M2.42119 2.69743C2.42119 2.71621 2.41563 2.73315 2.40426 2.74717C2.39288 2.76172 2.37409 2.77336 2.34737 2.78289C2.32066 2.79242 2.2844 2.79955 2.23784 2.80406C2.19154 2.80908 2.13412 2.8112 2.06613 2.8112C1.99601 2.8112 1.93781 2.80882 1.89123 2.80406C1.84493 2.79929 1.80842 2.79242 1.78196 2.78289C1.7555 2.77336 1.73645 2.76172 1.72508 2.74717C1.7137 2.73315 1.70815 2.71647 1.70815 2.69743L1.70815 1.25068C1.70815 1.12739 1.69915 1.03082 1.68089 0.960697C1.66317 0.890578 1.63698 0.830521 1.60284 0.779991C1.56871 0.729978 1.52478 0.691091 1.47055 0.663832C1.41684 0.636314 1.35386 0.622555 1.28164 0.622555C1.19062 0.622555 1.09881 0.655628 1.00594 0.722032C0.913081 0.788437 0.816502 0.885023 0.71596 1.01202L0.71596 2.69741C0.71596 2.71619 0.710404 2.73313 0.699027 2.74715C0.687651 2.7617 0.668337 2.77334 0.640552 2.78287C0.613035 2.7924 0.576789 2.79954 0.531281 2.80404C0.485774 2.80907 0.427832 2.81118 0.35798 2.81118C0.288128 2.81118 0.230186 2.80881 0.184678 2.80404C0.139171 2.79928 0.102658 2.7924 0.0754071 2.78287C0.0478894 2.77334 0.0283089 2.7617 0.0169321 2.74715C0.00555521 2.73313 0 2.71645 0 2.69741L0 0.162183C0 0.143402 0.00476391 0.126462 0.0142837 0.112445C0.0238115 0.0978945 0.04101 0.0862512 0.0653463 0.0767233C0.0896827 0.0671955 0.121706 0.0600577 0.160592 0.0555521C0.19922 0.0505298 0.248168 0.0484143 0.306909 0.0484143C0.3675 0.0484143 0.417771 0.0507882 0.457457 0.0555521C0.497143 0.0603161 0.5281 0.0671955 0.549796 0.0767233C0.571758 0.0862512 0.587366 0.0978945 0.596894 0.112445C0.606422 0.126462 0.611178 0.143144 0.611178 0.162183L0.611178 0.454817C0.751406 0.303211 0.894017 0.189442 1.03874 0.113769C1.184 0.0380952 1.33481 0 1.49224 0C1.66448 0 1.81 0.028309 1.92853 0.0852015C2.04679 0.142094 2.14257 0.21935 2.21534 0.31697C2.28837 0.414332 2.34102 0.528633 2.37329 0.659343C2.40557 0.790052 2.42171 0.947471 2.42171 1.1311L2.42171 2.69743L2.42119 2.69743Z" transform="translate(9.346433 1.185127)" id="Shape" fill="#E90000" stroke="none" />
          <path d="M2.53603 0.528084C2.55694 0.484434 2.56726 0.417222 2.56726 0.326207C2.56726 0.22778 2.55747 0.157403 2.53657 0.116433C2.51699 0.0748823 2.49079 0.0539857 2.45851 0.0539857L1.65418 0.0539857C1.59147 0.0370455 1.52373 0.0238196 1.45071 0.0142918C1.37794 0.00476392 1.30174 0 1.22211 0C1.06679 0 0.924716 0.0214457 0.795865 0.0637719C0.667013 0.106631 0.556159 0.168013 0.463287 0.248709C0.370681 0.329146 0.297922 0.427574 0.245802 0.544249C0.19394 0.660392 0.167746 0.792684 0.167746 0.940591C0.167746 1.07895 0.187593 1.19486 0.227546 1.28745C0.267498 1.38005 0.32041 1.4597 0.386822 1.5261C0.305327 1.59993 0.238914 1.68275 0.187852 1.77455C0.136781 1.86637 0.11112 1.96824 0.11112 2.08015C0.11112 2.16933 0.133349 2.25135 0.177799 2.32595C0.222515 2.40084 0.28548 2.4601 0.366975 2.50375C0.308233 2.5474 0.256113 2.59317 0.210605 2.64028C0.165098 2.68738 0.12647 2.73738 0.0955125 2.78951C0.0637638 2.84136 0.0404852 2.89587 0.024078 2.95276C0.00793717 3.00965 0 3.06943 0 3.13188C0 3.23241 0.0222208 3.32476 0.066937 3.40916C0.111387 3.49329 0.182555 3.56579 0.279924 3.62638C0.377552 3.68697 0.502706 3.73431 0.655103 3.76845C0.807766 3.80258 0.992178 3.81952 1.20808 3.81952C1.4298 3.81952 1.62347 3.79571 1.78937 3.74835C1.95499 3.70126 2.0931 3.63671 2.20291 3.55521C2.31271 3.4737 2.39526 3.37741 2.45029 3.2668C2.50533 3.15568 2.53284 3.03794 2.53284 2.91279C2.53284 2.79928 2.51247 2.69794 2.47199 2.60879C2.43124 2.51961 2.37224 2.44342 2.29578 2.38018C2.21878 2.31641 2.12433 2.26721 2.01162 2.23228C1.89864 2.19735 1.77032 2.17671 1.62638 2.17115L1.00964 2.1484C0.922326 2.14444 0.854598 2.12513 0.806442 2.0902C0.758028 2.05501 0.73395 2.01003 0.73395 1.955C0.73395 1.91319 0.743211 1.87537 0.761201 1.84123C0.778932 1.80709 0.799304 1.77773 0.822058 1.75312C0.86201 1.77983 0.918895 1.80286 0.992711 1.82297C1.06654 1.84254 1.14432 1.8526 1.22581 1.8526C1.3851 1.8526 1.52956 1.83222 1.65947 1.79148C1.78912 1.75072 1.89998 1.69119 1.99178 1.61261C2.08386 1.53376 2.15423 1.43719 2.20371 1.32263C2.25293 1.20807 2.27753 1.07684 2.27753 0.928932C2.27753 0.866226 2.26827 0.806168 2.25055 0.748484C2.23256 0.690542 2.2024 0.638946 2.16086 0.593439L2.4593 0.593439C2.48947 0.593439 2.51513 0.571735 2.53603 0.528084ZM1.5333 0.607605C1.60896 0.683278 1.64707 0.789377 1.64707 0.925899C1.64707 0.982776 1.63807 1.03729 1.61982 1.08941C1.60183 1.14154 1.57537 1.18756 1.54019 1.22725C1.50526 1.26695 1.46108 1.29816 1.40816 1.32092C1.35524 1.34367 1.29253 1.35506 1.22057 1.35506C1.08616 1.35506 0.980862 1.31748 0.905188 1.24287C0.829523 1.16799 0.79142 1.06612 0.79142 0.937268C0.79142 0.878535 0.800148 0.822175 0.81708 0.767931C0.834279 0.71422 0.860206 0.666597 0.895394 0.625853C0.930316 0.585368 0.974499 0.553102 1.02742 0.529283C1.08034 0.505738 1.14198 0.493836 1.2121 0.493836C1.35047 0.493836 1.45763 0.531931 1.5333 0.607605ZM1.81763 2.9496C1.81763 2.8644 1.7835 2.79907 1.71524 2.75354C1.64697 2.70802 1.55331 2.68342 1.43399 2.67972L0.925192 2.66543C0.875712 2.70141 0.836559 2.73608 0.807451 2.76916C0.778084 2.80249 0.754273 2.83424 0.736016 2.8644C0.718293 2.89457 0.706383 2.9242 0.700562 2.95251C0.69474 2.98082 0.692092 3.01045 0.692092 3.04062C0.692092 3.13533 0.739981 3.20731 0.83576 3.25651C0.931272 3.30599 1.06621 3.33033 1.24057 3.33033C1.34852 3.33033 1.43954 3.31948 1.51336 3.29752C1.58717 3.27583 1.64697 3.24699 1.69248 3.21099C1.73799 3.17499 1.77027 3.13478 1.78905 3.09034C1.80783 3.04564 1.81763 2.99907 1.81763 2.9496Z" transform="translate(12.18529 1.197142)" id="Shape" fill="#E90000" fill-rule="evenodd" stroke="none" />
          <path d="M1.76556 2.74558L1.45864 3.64385C1.44171 3.69121 1.39514 3.72534 1.31947 3.74625C1.24379 3.76716 1.13294 3.77746 0.98689 3.77746C0.911216 3.77746 0.850367 3.77402 0.80486 3.7674C0.759352 3.76106 0.725222 3.7502 0.702468 3.73486C0.679714 3.71952 0.667279 3.70072 0.665422 3.67797C0.663565 3.65522 0.669395 3.62796 0.682354 3.59542L1.0205 2.74558C0.995893 2.7342 0.973664 2.71674 0.953559 2.69294C0.933978 2.66939 0.919162 2.64425 0.909642 2.6178L0.0370455 0.287079C0.0124427 0.220674 0 0.170128 0 0.13494C0 0.10001 0.0113769 0.0724923 0.0341306 0.0526615C0.0568844 0.0325561 0.0949877 0.0187973 0.14949 0.011385C0.203201 0.00397262 0.274902 0 0.364068 0C0.445564 0 0.510119 0.00158259 0.557217 0.004231C0.604573 0.00741233 0.641352 0.0142918 0.668079 0.0256606C0.694805 0.0370294 0.714644 0.0545024 0.727878 0.0780475C0.741104 0.101867 0.754605 0.135457 0.767564 0.179123L1.36447 1.8759L1.37294 1.8759L1.91877 0.145001C1.93015 0.0955206 1.94496 0.0629806 1.96295 0.0471063C1.98068 0.030699 2.01084 0.0190557 2.05238 0.011385C2.09393 0.00371424 2.16721 0 2.27119 0C2.35269 0 2.42015 0.00397262 2.47466 0.011385C2.52837 0.0187973 2.56832 0.0330729 2.59399 0.0539857C2.61939 0.0748823 2.63235 0.102933 2.63235 0.137863C2.63235 0.172793 2.62493 0.214069 2.60959 0.261418L1.76556 2.74558L1.76556 2.74558Z" transform="translate(16.24812 1.233189)" id="Shape" fill="#E90000" stroke="none" />
          <path d="M2.63234 1.99495C2.68922 1.81715 2.71753 1.61976 2.71753 1.40387C2.71753 1.17845 2.69028 0.978687 2.63736 0.804327C2.58444 0.629968 2.50322 0.483126 2.39447 0.363802C2.28547 0.244478 2.14762 0.15398 1.98093 0.0923393C1.81424 0.030699 1.61713 0 1.38985 0C1.15676 0 0.953291 0.0349139 0.780256 0.105032C0.606422 0.175151 0.462229 0.274095 0.346603 0.402155C0.231244 0.529683 0.14446 0.683146 0.086784 0.862528C0.0288419 1.04139 0 1.23904 0 1.45493C0 1.6785 0.0267183 1.87747 0.0796381 2.05183C0.132558 2.22619 0.21432 2.37303 0.324116 2.49235C0.433912 2.61168 0.572291 2.70269 0.73898 2.76514C0.905668 2.82759 1.10172 2.8588 1.32741 2.8588C1.56051 2.8588 1.76397 2.82389 1.9386 2.75377C2.11322 2.68365 2.25795 2.58418 2.37357 2.45532C2.4892 2.32647 2.57545 2.17275 2.63234 1.99495ZM1.94923 1.08662C1.96881 1.1922 1.97886 1.30702 1.97886 1.43218C1.97886 1.56684 1.96643 1.6867 1.94157 1.79149C1.91696 1.89705 1.87886 1.98623 1.8278 2.0603C1.77674 2.13438 1.71138 2.19074 1.63174 2.22937C1.55237 2.26853 1.45844 2.28784 1.35049 2.28784C1.23302 2.28784 1.13459 2.26667 1.05495 2.22381C0.975316 2.18121 0.912344 2.12115 0.865778 2.04336C0.819472 1.96557 0.785874 1.8743 0.764969 1.76899C0.744064 1.66396 0.733745 1.54887 0.733745 1.42371C0.733745 1.28931 0.746446 1.16945 0.772373 1.06414C0.797776 0.959096 0.836404 0.868872 0.887466 0.794264C0.938529 0.719123 1.00388 0.662231 1.08352 0.623603C1.16316 0.584442 1.25603 0.565128 1.36213 0.565128C1.48145 0.565128 1.58041 0.586832 1.65925 0.630482C1.73783 0.674407 1.80081 0.734723 1.84816 0.812512C1.89552 0.890301 1.92912 0.981849 1.94923 1.08662Z" transform="translate(19.08698 1.185127)" id="Shape" fill="#E90000" fill-rule="evenodd" stroke="none" />
          <path d="M2.41908 2.649C2.41908 2.66778 2.41432 2.68472 2.4048 2.69874C2.39527 2.71329 2.3786 2.72493 2.35506 2.73446C2.33151 2.74398 2.30029 2.75112 2.2614 2.75563C2.2225 2.76065 2.17355 2.76277 2.11482 2.76277C2.05238 2.76277 2.00158 2.76039 1.96268 2.75563C1.92405 2.75086 1.8931 2.74398 1.87034 2.73446C1.84759 2.72493 1.83171 2.71329 1.82192 2.69874C1.81239 2.68472 1.80764 2.66804 1.80764 2.649L1.80764 2.35636C1.66741 2.50797 1.5248 2.62174 1.38007 2.69741C1.23481 2.77308 1.0848 2.81118 0.929487 2.81118C0.755128 2.81118 0.608811 2.78287 0.490279 2.72598C0.372013 2.66909 0.276234 2.59131 0.203467 2.49289C0.130442 2.39446 0.0783219 2.28016 0.0468316 2.15051C0.0158743 2.0206 0 1.85895 0 1.6658L0 0.114027C0 0.0952461 0.00528875 0.0783059 0.0158743 0.0642887C0.0261934 0.0497385 0.0449745 0.0380952 0.0727586 0.0285674C0.100276 0.0190395 0.137055 0.0119017 0.183354 0.00739618C0.229919 0.00237388 0.287336 0.000258382 0.355331 0.000258382C0.425449 0.000258382 0.483125 0.00263227 0.528632 0.00739618C0.57414 0.0121601 0.610652 0.0190395 0.637904 0.0285674C0.665421 0.0380952 0.685002 0.0497385 0.696379 0.0642887C0.707755 0.0783059 0.713311 0.0949877 0.713311 0.114027L0.713311 1.54648C0.713311 1.67903 0.721781 1.78064 0.738971 1.85048C0.756162 1.92033 0.782097 1.98066 0.817285 2.03119C0.852207 2.0812 0.896923 2.12009 0.950634 2.14735C1.00487 2.17487 1.06758 2.18862 1.13981 2.18862C1.23082 2.18862 1.32211 2.15555 1.41418 2.08915C1.50598 2.02274 1.60415 1.92616 1.70813 1.79916L1.70813 0.113769C1.70813 0.0949877 1.71342 0.0780475 1.72374 0.0640303C1.73432 0.0494802 1.7531 0.0378368 1.78062 0.028309C1.80814 0.0187811 1.84465 0.0116433 1.89016 0.0071378C1.93567 0.0021155 1.99361 0 2.06346 0C2.13331 0 2.19125 0.00237388 2.23676 0.0071378C2.28227 0.0119017 2.31826 0.0187811 2.34471 0.028309C2.37116 0.0378368 2.39021 0.0494802 2.40159 0.0640303C2.41297 0.0780475 2.41852 0.0947293 2.41852 0.113769L2.41852 2.649L2.41908 2.649Z" transform="translate(22.35198 1.233189)" id="Shape" fill="#E90000" stroke="none" />
          <path d="M1.6277 0.397682C1.6277 0.465944 1.62585 0.52177 1.62215 0.565421C1.61844 0.609071 1.61262 0.64321 1.60521 0.667821C1.59781 0.692432 1.58775 0.709355 1.57558 0.718883C1.56315 0.728411 1.54754 0.733175 1.52848 0.733175C1.51313 0.733175 1.4962 0.729735 1.47742 0.723114C1.45863 0.716768 1.4372 0.709355 1.41339 0.701943C1.38985 0.694531 1.36365 0.687119 1.33534 0.680772C1.30703 0.674151 1.27554 0.670711 1.24167 0.670711C1.20199 0.670711 1.16204 0.678656 1.12235 0.694789C1.08266 0.711196 1.04139 0.736066 0.998529 0.770188C0.956195 0.804327 0.911479 0.849835 0.86518 0.906711C0.818615 0.963603 0.768868 1.03345 0.715957 1.11705L0.715957 2.69741C0.715957 2.71619 0.710402 2.73313 0.699025 2.74715C0.687648 2.7617 0.668334 2.77334 0.64055 2.78287C0.613033 2.7924 0.576787 2.79954 0.531279 2.80404C0.485772 2.80906 0.42783 2.81118 0.357978 2.81118C0.288127 2.81118 0.230185 2.80881 0.184678 2.80404C0.13917 2.79928 0.102658 2.7924 0.0754068 2.78287C0.0478893 2.77334 0.0283088 2.7617 0.016932 2.74715C0.00555519 2.73313 0 2.71645 0 2.69741L0 0.162183C0 0.143402 0.0047639 0.126462 0.0142836 0.112445C0.0238114 0.0978945 0.0410099 0.0862511 0.0653461 0.0767233C0.0896823 0.0671955 0.121705 0.0600577 0.160592 0.0555521C0.19922 0.0505298 0.248167 0.0484143 0.306908 0.0484143C0.367498 0.0484143 0.417769 0.0507882 0.457455 0.0555521C0.497141 0.0603161 0.528098 0.0671955 0.549794 0.0767233C0.571756 0.0862511 0.587364 0.0978945 0.596892 0.112445C0.60642 0.126462 0.611175 0.143144 0.611175 0.162183L0.611175 0.477571C0.677587 0.382858 0.740027 0.304794 0.798768 0.243154C0.857501 0.181513 0.913594 0.13255 0.966514 0.0965703C1.01943 0.0605906 1.07261 0.0354468 1.12579 0.0214296C1.17871 0.00687942 1.23189 0 1.28506 0C1.30967 0 1.33613 0.00132421 1.3647 0.00450554C1.39301 0.00715395 1.42264 0.0119179 1.45281 0.0185228C1.48298 0.0251438 1.50969 0.0330729 1.53245 0.0412765C1.5552 0.0500131 1.57161 0.0587335 1.58219 0.0685358C1.59251 0.0780637 1.59991 0.0883828 1.60494 0.0997516C1.6097 0.111137 1.61367 0.126736 1.61764 0.146842C1.62161 0.166414 1.62425 0.19658 1.62611 0.236274C1.62797 0.275968 1.6277 0.329421 1.6277 0.397682L1.6277 0.397682Z" transform="translate(25.49523 1.185527)" id="Shape" fill="#E90000" stroke="none" />
          <path d="M0.715958 3.85973C0.715958 3.87851 0.710402 3.89545 0.699026 3.90947C0.687649 3.92402 0.668335 3.93566 0.640551 3.94519C0.613033 3.95471 0.576787 3.96185 0.53128 3.96636C0.485772 3.97138 0.42783 3.9735 0.357979 3.9735C0.288127 3.9735 0.230185 3.97112 0.184678 3.96636C0.13917 3.96159 0.102658 3.95471 0.0754069 3.94519C0.0478893 3.93566 0.0283089 3.92402 0.016932 3.90947C0.00555519 3.89545 0 3.87877 0 3.85973L0 0.122231C0 0.10345 0.00555519 0.0862511 0.016932 0.0711681C0.0283089 0.056085 0.0476228 0.043392 0.0754069 0.03254C0.102924 0.0222209 0.13917 0.0142918 0.184678 0.00846201C0.230185 0.00263227 0.288127 0 0.357979 0C0.42783 0 0.485772 0.0029068 0.53128 0.00846201C0.576787 0.0140172 0.6133 0.0222209 0.640551 0.03254C0.668068 0.0431175 0.687649 0.0558267 0.699026 0.0711681C0.710402 0.0865095 0.715958 0.10345 0.715958 0.122231L0.715958 3.85973L0.715958 3.85973Z" transform="translate(28.87558 0.02242889)" id="Shape" fill="#E90000" stroke="none" />
          <path d="M0.735798 0.667804C0.794539 0.612769 0.823906 0.513292 0.823906 0.369357C0.823906 0.231236 0.795331 0.134665 0.738979 0.0812288C0.682095 0.0269848 0.57414 0 0.414864 0C0.253997 0 0.144459 0.0277761 0.0865174 0.0836027C0.0288418 0.139688 0 0.239698 0 0.383633C0 0.521754 0.027776 0.617791 0.083869 0.670711C0.139429 0.723631 0.248175 0.750358 0.409042 0.750358C0.568052 0.750358 0.677056 0.72284 0.735798 0.667804ZM0.750293 3.81243C0.76167 3.79841 0.767225 3.78147 0.767225 3.76269L0.767225 1.23302C0.767225 1.21398 0.76167 1.1973 0.750293 1.18328C0.738916 1.16873 0.719335 1.15655 0.691818 1.14597C0.664567 1.13566 0.628054 1.12745 0.582547 1.1219C0.537039 1.11634 0.479097 1.11343 0.409245 1.11343C0.339394 1.11343 0.281452 1.11607 0.235944 1.1219C0.190437 1.12773 0.154191 1.13566 0.126673 1.14597C0.0988888 1.15655 0.0795748 1.16873 0.068198 1.18328C0.0568211 1.1973 0.0512659 1.21424 0.0512659 1.23302L0.0512659 3.76269C0.0512659 3.78173 0.0568211 3.79841 0.068198 3.81243C0.0795748 3.82698 0.0991553 3.83862 0.126673 3.84815C0.153924 3.85768 0.190437 3.86456 0.235944 3.86932C0.281452 3.87408 0.339394 3.87646 0.409245 3.87646C0.479097 3.87646 0.537039 3.87434 0.582547 3.86932C0.628054 3.86482 0.6643 3.85768 0.691818 3.84815C0.719602 3.83862 0.738916 3.82698 0.750293 3.81243Z" transform="translate(30.25335 0.1193537)" id="Shape" fill="#E90000" fill-rule="evenodd" stroke="none" />
          <path d="M1.81608 0.380742C1.81608 0.435777 1.81423 0.479702 1.81053 0.513034C1.80656 0.546107 1.801 0.571767 1.7936 0.589499C1.78618 0.607488 1.77746 0.619923 1.76794 0.626803C1.75841 0.633149 1.74809 0.636589 1.73671 0.636589C1.72349 0.636589 1.70893 0.633149 1.6928 0.626803C1.67639 0.620181 1.65655 0.612785 1.63274 0.605373C1.60919 0.597961 1.58141 0.590548 1.54913 0.583943C1.51685 0.577597 1.47901 0.574157 1.43536 0.574157C1.3843 0.574157 1.34037 0.582102 1.30307 0.598494C1.26629 0.614626 1.23533 0.640028 1.21073 0.674958C1.18613 0.710147 1.16813 0.755654 1.15675 0.811481C1.14537 0.867566 1.13982 0.93636 1.13982 1.01759L1.13982 1.25068L1.6031 1.25068C1.62004 1.25068 1.63591 1.25545 1.64994 1.26497C1.66449 1.2745 1.67613 1.2901 1.68566 1.31181C1.69519 1.33377 1.70232 1.3634 1.70682 1.4015C1.71185 1.43959 1.71397 1.48563 1.71397 1.54067C1.71397 1.64491 1.70444 1.71926 1.68566 1.76397C1.66687 1.80843 1.63909 1.83065 1.6031 1.83065L1.13982 1.83065L1.13982 3.88276C1.13982 3.90154 1.13426 3.91848 1.12289 3.93249C1.11151 3.94704 1.09272 3.95869 1.066 3.96821C1.03928 3.97774 1.0025 3.98488 0.95514 3.98939C0.907784 3.99441 0.8501 3.99652 0.781839 3.99652C0.713577 3.99652 0.65616 3.99415 0.609861 3.98939C0.563563 3.98462 0.526784 3.97774 0.499266 3.96821C0.471748 3.95869 0.452701 3.94704 0.442382 3.93249C0.431796 3.91848 0.426507 3.90179 0.426507 3.88276L0.426507 1.83065L0.108213 1.83065C0.0722338 1.83065 0.045241 1.80843 0.0272512 1.76397C0.00926137 1.71926 0 1.64491 0 1.54067C0 1.48563 0.00238196 1.43933 0.00687941 1.4015C0.0119098 1.3634 0.0182563 1.33377 0.0269847 1.31181C0.0351884 1.29012 0.0465652 1.2745 0.0611153 1.26497C0.0751406 1.25545 0.0918062 1.25068 0.110854 1.25068L0.426233 1.25068L0.426233 1.03742C0.426233 0.865176 0.443165 0.713829 0.477295 0.583927C0.511426 0.454284 0.564871 0.346329 0.637629 0.259819C0.710654 0.173827 0.803527 0.109005 0.916238 0.0653545C1.02921 0.0217041 1.1623 0 1.31576 0C1.38958 0 1.45969 0.00608813 1.52611 0.0185228C1.59252 0.030699 1.64437 0.0439249 1.68248 0.0582167C1.72058 0.0722339 1.74597 0.0857344 1.75921 0.0979106C1.77243 0.110087 1.78355 0.128077 1.79175 0.151622C1.80048 0.175441 1.80656 0.205866 1.81027 0.242637C1.81449 0.279941 1.81608 0.325707 1.81608 0.380742L1.81608 0.380742Z" transform="translate(31.44849 0)" id="Shape" fill="#E90000" stroke="none" />
          <path d="M2.43074 1.54992C2.4699 1.50839 2.48921 1.44382 2.48921 1.35678L2.48999 1.35678L2.48999 1.24169C2.48999 1.06361 2.46724 0.898782 2.42173 0.747176C2.37623 0.595571 2.30505 0.464603 2.20848 0.353483C2.11191 0.242895 1.98808 0.156111 1.8378 0.0936635C1.68672 0.0312158 1.50548 0 1.29328 0C1.09246 0 0.911757 0.0330729 0.751948 0.0994771C0.59188 0.165897 0.455883 0.261935 0.343963 0.38788C0.232043 0.513825 0.146842 0.667272 0.0881082 0.848252C0.0293667 1.02949 0 1.23242 0 1.45811C0 1.69518 0.0277841 1.90155 0.0836108 2.07776C0.139704 2.25398 0.224639 2.39976 0.338141 2.51538C0.451644 2.63101 0.593196 2.71726 0.763058 2.77415C0.932395 2.83104 1.12977 2.85935 1.35546 2.85935C1.48061 2.85935 1.59808 2.85141 1.70789 2.83527C1.81768 2.81887 1.91532 2.80007 2.00051 2.77838C2.08572 2.75642 2.15583 2.7342 2.21086 2.71145C2.2659 2.68869 2.2995 2.6707 2.31167 2.65748C2.32411 2.64425 2.33416 2.63075 2.34157 2.6162C2.34897 2.60244 2.3548 2.58471 2.3585 2.56381C2.36221 2.54292 2.36512 2.51777 2.36697 2.48867C2.36882 2.4593 2.36988 2.42358 2.36988 2.38204C2.36988 2.33495 2.3683 2.29553 2.36565 2.26404C2.36247 2.23308 2.35718 2.20901 2.34977 2.19181C2.34237 2.17461 2.33284 2.16271 2.32146 2.15609C2.31009 2.14974 2.2958 2.1463 2.27886 2.1463C2.25056 2.1463 2.21351 2.15555 2.168 2.17328C2.12276 2.19153 2.06534 2.21138 1.99629 2.23334C1.92697 2.25503 1.84495 2.27514 1.75023 2.29287C1.65551 2.31113 1.54571 2.32013 1.42056 2.32013C1.29726 2.32013 1.1917 2.30399 1.10386 2.27171C1.01548 2.23943 0.94378 2.1926 0.887954 2.13122C0.831861 2.06932 0.791375 1.99469 0.765448 1.90633C0.740054 1.81848 0.727087 1.72032 0.727087 1.61237L2.2704 1.61237C2.3384 1.61237 2.39211 1.59146 2.43074 1.54992ZM1.67187 0.678764C1.75812 0.793598 1.79834 0.951292 1.79278 1.1521L0.724132 1.1521C0.727839 1.06295 0.741597 0.979327 0.765409 0.900488C0.788954 0.822166 0.823085 0.753904 0.867801 0.695962C0.912251 0.638278 0.968077 0.592254 1.03528 0.558115C1.10248 0.523993 1.1816 0.507053 1.27261 0.507053C1.45279 0.507053 1.58588 0.564204 1.67187 0.678764Z" transform="translate(33.32932 1.183925)" id="Shape" fill="#E90000" fill-rule="evenodd" stroke="none" />
          <path d="M0.844284 0.432063C0.844284 0.60828 0.813593 0.726538 0.751679 0.787403C0.690297 0.847994 0.579968 0.878418 0.420685 0.878418C0.261401 0.878418 0.151605 0.848785 0.0910147 0.788728C0.0304244 0.729203 0 0.615951 0 0.449262C0 0.271204 0.0306908 0.151864 0.0923389 0.0910151C0.153987 0.0304245 0.265373 0 0.426506 0C0.583933 0 0.692679 0.0298916 0.753261 0.0894325C0.814118 0.149216 0.844284 0.263259 0.844284 0.432063L0.844284 0.432063Z" transform="translate(36.40527 3.137642)" id="Shape" fill="#E90000" stroke="none" />
          <path d="M0.844284 0.432063C0.844284 0.60828 0.813593 0.726538 0.751679 0.787403C0.690297 0.847994 0.579968 0.878418 0.420685 0.878418C0.261401 0.878418 0.151605 0.848785 0.0910147 0.788728C0.0304244 0.729203 0 0.615951 0 0.449262C0 0.271204 0.0306908 0.151864 0.0923389 0.0910151C0.153987 0.0304245 0.265373 0 0.426506 0C0.583933 0 0.692679 0.0298916 0.753261 0.0894325C0.814118 0.149216 0.844284 0.263259 0.844284 0.432063L0.844284 0.432063Z" transform="translate(37.95927 3.137642)" id="Shape" fill="#E90000" stroke="none" />
          <path d="M0.844284 0.432063C0.844284 0.608279 0.813593 0.726537 0.751679 0.787402C0.690297 0.847993 0.579968 0.878417 0.420685 0.878417C0.261401 0.878417 0.151605 0.848784 0.0910147 0.788727C0.0304244 0.729202 0 0.61595 0 0.449261C0 0.271204 0.0306908 0.151864 0.0923389 0.091015C0.153987 0.0304245 0.265373 0 0.426506 0C0.583933 0 0.692679 0.0298915 0.753261 0.0894324C0.814126 0.149216 0.844284 0.263259 0.844284 0.432063L0.844284 0.432063Z" transform="translate(39.51328 3.137642)" id="Shape" fill="#E90000" stroke="none" />
        </g>
      </g>
      <path d="M0.264584 0L0.264584 4334.66" transform="translate(74.73438 -2103.542)" id="Line" fill="none" stroke="none" />
    </g>
  </g>
</svg>